<svg width="15px" height="15px" viewBox="0 0 15 15" version="1.1" xmlns="http://www.w3.org/2000/svg">
	<defs>
	</defs>
	<g id="Page-1" stroke="none" stroke-width="1" fill="none" fill-rule="evenodd">
		<path d="M14.7113288,0.288671184 L14.7113288,0.288671184 C14.3264339,-0.0962237281 13.702396,-0.0962237281 13.317501,0.288671184 L7.5,6.10617222 L1.68249896,0.288671184 C1.29760405,-0.0962237281 0.673566097,-0.0962237281 0.288671184,0.288671184 L0.288671184,0.288671184 C-0.0962237281,0.673566097 -0.0962237281,1.29760405 0.288671184,1.68249896 L6.10617222,7.5 L0.288671184,13.317501 C-0.0962237281,13.702396 -0.0962237281,14.3264339 0.288671184,14.7113288 L0.288671184,14.7113288 C0.673566097,15.0962237 1.29760405,15.0962237 1.68249896,14.7113288 L7.5,8.89382778 L13.317501,14.7113288 C13.702396,15.0962237 14.3264339,15.0962237 14.7113288,14.7113288 L14.7113288,14.7113288 C15.0962237,14.3264339 15.0962237,13.702396 14.7113288,13.317501 L8.89382778,7.5 L14.7113288,1.68249896 C15.0962237,1.29760405 15.0962237,0.673566097 14.7113288,0.288671184 Z" id="Shape" fill="#FFFFFF" fill-rule="nonzero">
		</path>
	</g>
</svg>
