<svg width="24px" height="26px" viewBox="0 0 24 26" version="1.1" xmlns="http://www.w3.org/2000/svg">
	<g id="Page-1" stroke="none" stroke-width="1" fill="none" fill-rule="evenodd">
		<path d="M21.3333333,12 L19.0666667,12 C19.0666667,12.9866667 18.8533333,13.9066667 18.4933333,14.7333333 L20.1333333,16.3733333 C20.88,15.0666667 21.3333333,13.5866667 21.3333333,12 Z M15.9733333,12.2266667 C15.9733333,12.1466667 16,12.08 16,12 L16,4 C16,1.78666667 14.2133333,0 12,0 C9.78666667,0 8,1.78666667 8,4 L8,4.24 L15.9733333,12.2266667 Z M1.69333333,1.33333333 L0,3.02666667 L8.01333333,11.04 L8.01333333,12 C8.01333333,14.2133333 9.78666667,16 12,16 C12.2933333,16 12.5866667,15.96 12.8666667,15.8933333 L15.08,18.1066667 C14.1333333,18.5466667 13.08,18.8 12,18.8 C8.32,18.8 4.93333333,16 4.93333333,12 L2.66666667,12 C2.66666667,16.5466667 6.29333333,20.3066667 10.6666667,20.96 L10.6666667,25.3333333 L13.3333333,25.3333333 L13.3333333,20.96 C14.5466667,20.7866667 15.6933333,20.36 16.72,19.76 L22.3066667,25.3333333 L24,23.64 L1.69333333,1.33333333 Z" id="Shape" fill="#FFFFFF" fill-rule="nonzero">
		</path>
	</g>
</svg>
